<?xml version="1.0" standalone="no"?>
<!DOCTYPE svg PUBLIC "-//W3C//DTD SVG 20010904//EN"
 "http://www.w3.org/TR/2001/REC-SVG-20010904/DTD/svg10.dtd">
<svg version="1.0" xmlns="http://www.w3.org/2000/svg"
 width="1375.000000pt" height="215.000000pt" viewBox="0 0 1375.000000 215.000000"
 preserveAspectRatio="xMidYMid meet">
<metadata>
Created by potrace 1.16, written by Peter Selinger 2001-2019
</metadata>
<g transform="translate(0.000000,215.000000) scale(0.100000,-0.100000)"
fill="#000000" stroke="none">
<path d="M980 2134 c-19 -3 -71 -11 -115 -20 -396 -77 -711 -371 -821 -766
-38 -136 -44 -342 -15 -485 44 -212 136 -382 292 -541 134 -135 297 -228 487
-279 86 -24 116 -27 262 -27 146 0 176 3 262 27 184 49 350 143 481 271 165
163 204 271 109 307 -40 16 -71 -1 -114 -60 -122 -168 -276 -280 -478 -347
-80 -27 -95 -28 -260 -28 -171 0 -177 0 -270 32 -241 81 -419 235 -529 455
-71 142 -94 239 -94 402 0 105 4 146 23 215 87 319 312 551 627 647 79 24 104
26 243 26 140 0 164 -2 245 -27 182 -55 347 -166 459 -311 61 -77 86 -92 133
-80 36 9 52 32 53 76 0 28 -11 50 -49 100 -150 198 -381 341 -631 393 -80 16
-242 27 -300 20z"/>
<path d="M6570 1095 l0 -645 80 0 80 0 0 349 0 349 48 30 c92 60 141 77 222
77 91 0 133 -20 164 -80 20 -38 21 -57 24 -382 l3 -343 80 0 80 0 -3 363 c-3
348 -4 364 -26 418 -27 68 -79 124 -141 153 -37 17 -65 21 -141 21 -87 0 -101
-3 -165 -33 -38 -18 -84 -44 -102 -58 -17 -13 -34 -24 -37 -24 -3 0 -6 101 -6
225 l0 225 -80 0 -80 0 0 -645z"/>
<path d="M2820 1698 c-161 -43 -282 -140 -350 -283 -54 -113 -72 -204 -72
-355 1 -143 22 -244 74 -350 42 -88 142 -187 228 -228 185 -87 436 -80 656 18
l64 29 0 96 c0 52 -2 95 -5 95 -3 0 -29 -18 -58 -40 -129 -97 -310 -140 -459
-109 -161 34 -271 151 -314 336 -23 98 -15 293 16 386 42 124 136 226 240 262
154 53 367 12 520 -100 26 -19 50 -35 54 -35 3 0 6 44 6 99 l0 98 -79 32
c-127 49 -188 62 -316 67 -102 4 -133 1 -205 -18z"/>
<path d="M7668 1070 l2 -620 80 0 80 0 0 230 0 230 123 0 c68 0 150 5 182 11
227 42 362 227 334 458 -18 157 -143 271 -329 302 -30 5 -149 9 -265 9 l-210
0 3 -620z m484 459 c92 -30 147 -111 148 -213 0 -117 -47 -195 -142 -236 -44
-19 -77 -24 -190 -28 l-138 -5 0 253 0 253 143 -6 c78 -3 159 -11 179 -18z"/>
<path d="M10390 1515 l0 -135 -55 0 -55 0 0 -65 0 -65 54 0 55 0 3 -312 c3
-305 4 -314 27 -366 26 -57 63 -94 120 -118 49 -22 192 -28 266 -12 l60 13 3
73 c2 39 1 72 -2 72 -2 0 -33 -7 -67 -16 -70 -18 -152 -14 -189 8 -12 7 -31
31 -43 53 -20 38 -22 57 -25 323 l-4 282 166 0 166 0 0 65 0 65 -165 0 -165 0
0 135 0 135 -75 0 -75 0 0 -135z"/>
<path d="M755 1556 c-54 -24 -55 -31 -55 -489 0 -403 1 -423 20 -454 16 -27
26 -33 56 -33 72 0 94 35 94 151 0 72 12 95 53 104 12 2 101 6 197 8 217 4
264 18 351 108 129 131 142 329 31 474 -40 53 -114 108 -172 127 -54 18 -536
22 -575 4z m552 -184 c112 -59 134 -211 43 -302 -51 -51 -93 -60 -279 -60
-213 0 -201 -11 -201 193 0 83 4 157 8 163 20 30 50 34 217 32 154 -3 174 -5
212 -26z"/>
<path d="M3872 1395 c-195 -55 -302 -225 -302 -480 0 -180 48 -306 149 -396
82 -73 141 -93 276 -93 135 0 199 21 278 94 102 93 147 214 147 395 0 67 -6
134 -15 170 -36 137 -131 253 -243 295 -74 29 -215 36 -290 15z m245 -153 c52
-27 98 -82 120 -147 14 -38 18 -82 18 -185 0 -133 -1 -137 -33 -203 -36 -73
-74 -108 -141 -132 -134 -47 -271 19 -321 153 -42 112 -36 311 12 406 34 68
75 103 148 127 43 14 152 4 197 -19z"/>
<path d="M4855 1404 c-16 -3 -63 -11 -102 -20 l-73 -15 0 -81 c0 -70 2 -79 16
-74 55 21 180 48 249 53 167 12 265 -37 280 -140 4 -27 6 -49 4 -51 -2 -2 -65
-9 -139 -15 -233 -20 -337 -52 -412 -125 -52 -50 -72 -100 -76 -189 -5 -99 10
-156 59 -217 110 -139 350 -146 526 -14 17 13 34 24 37 24 3 0 6 -20 6 -45 l0
-45 75 0 76 0 -3 378 c-3 365 -4 378 -25 418 -31 57 -91 108 -159 134 -48 18
-83 23 -184 25 -69 2 -138 1 -155 -1z m375 -598 l0 -133 -38 -25 c-103 -69
-142 -82 -237 -83 -77 0 -95 3 -126 23 -51 31 -72 80 -67 151 9 133 122 184
441 200 l27 1 0 -134z"/>
<path d="M5951 1394 c-161 -43 -278 -172 -311 -341 -19 -95 -8 -273 21 -350
62 -168 192 -259 384 -270 101 -6 185 10 279 51 l56 25 0 85 c0 48 -2 86 -5
86 -2 0 -26 -14 -52 -30 -163 -104 -344 -104 -443 -2 -67 70 -85 129 -85 277
0 111 3 125 29 183 36 78 91 127 165 149 97 28 225 2 334 -67 26 -16 50 -30
52 -30 3 0 5 40 5 89 l0 89 -72 26 c-40 14 -93 30 -118 36 -64 14 -176 11
-239 -6z"/>
<path d="M8800 1399 c-30 -5 -76 -14 -102 -20 l-48 -11 0 -80 c0 -70 2 -79 16
-74 53 20 179 47 244 52 174 14 271 -36 286 -147 l6 -46 -143 -12 c-232 -19
-324 -48 -409 -127 -64 -60 -83 -115 -78 -227 4 -98 32 -162 92 -213 123 -106
335 -96 493 22 17 13 34 24 37 24 3 0 6 -20 6 -45 l0 -45 75 0 76 0 -3 378
c-3 365 -4 378 -25 417 -43 81 -123 135 -228 154 -68 13 -215 13 -295 0z m400
-593 l0 -133 -37 -26 c-21 -14 -65 -39 -98 -54 -51 -24 -73 -28 -145 -28 -72
0 -91 4 -124 24 -45 28 -66 72 -66 137 0 68 24 110 84 144 66 38 181 60 359
69 l27 1 0 -134z"/>
<path d="M11415 1397 c-53 -18 -122 -53 -162 -83 -17 -13 -34 -24 -37 -24 -3
0 -6 20 -6 45 l0 45 -80 0 -80 0 0 -465 0 -465 80 0 80 0 0 349 0 349 48 30
c92 60 141 77 222 77 91 0 133 -20 164 -80 20 -38 21 -57 24 -382 l3 -343 80
0 80 0 -3 363 c-3 348 -4 364 -26 418 -27 68 -80 125 -141 152 -57 26 -188 33
-246 14z"/>
<path d="M12381 1395 c-157 -44 -267 -161 -306 -327 -19 -81 -19 -225 0 -307
49 -206 224 -330 466 -331 82 0 150 12 257 47 l82 27 0 87 0 87 -76 -39 c-286
-143 -554 -50 -581 201 l-6 60 343 0 343 0 -6 108 c-10 197 -72 304 -211 368
-75 34 -219 43 -305 19z m203 -126 c85 -21 146 -98 161 -201 l6 -48 -265 0
-266 0 0 23 c0 29 45 126 73 155 62 67 187 97 291 71z"/>
<path d="M9650 915 l0 -465 80 0 80 0 0 333 0 332 48 32 c85 58 140 77 222 78
41 0 92 -4 113 -8 l37 -8 0 79 c0 91 0 92 -101 92 -78 0 -172 -32 -249 -84
l-65 -45 -3 65 -3 64 -79 0 -80 0 0 -465z"/>
<path d="M13140 915 l0 -465 80 0 80 0 0 334 0 334 48 30 c91 59 141 76 222
77 41 0 92 -4 113 -8 l37 -8 0 79 c0 93 1 92 -100 92 -85 0 -159 -26 -250 -86
l-65 -43 -3 65 -3 64 -79 0 -80 0 0 -465z"/>
</g>
</svg>
